<mxfile host="app.diagrams.net" modified="2023-09-12T07:55:54.050Z" agent="Mozilla/5.0 (Windows NT 10.0; Win64; x64) AppleWebKit/537.36 (KHTML, like Gecko) Chrome/116.0.0.0 Safari/537.36" etag="_PFAQIy2L0QipzykyZ-5" version="21.7.4" type="github">
  <diagram name="第 1 页" id="gbzjIBx3TnUNQ3ICYv8d">
    <mxGraphModel dx="1434" dy="790" grid="1" gridSize="10" guides="1" tooltips="1" connect="1" arrows="1" fold="1" page="1" pageScale="1" pageWidth="1169" pageHeight="827" math="0" shadow="0">
      <root>
        <mxCell id="0" />
        <mxCell id="1" parent="0" />
        <mxCell id="SLFati7Lau5gJFIO-DdP-1" value="" style="ellipse;whiteSpace=wrap;html=1;fillColor=none;" vertex="1" parent="1">
          <mxGeometry x="210" y="220" width="150" height="80" as="geometry" />
        </mxCell>
        <mxCell id="SLFati7Lau5gJFIO-DdP-2" value="" style="ellipse;whiteSpace=wrap;html=1;aspect=fixed;fillColor=none;" vertex="1" parent="1">
          <mxGeometry x="300" y="160" width="170" height="170" as="geometry" />
        </mxCell>
        <mxCell id="SLFati7Lau5gJFIO-DdP-3" value="" style="ellipse;shape=cloud;whiteSpace=wrap;html=1;fillColor=none;" vertex="1" parent="1">
          <mxGeometry x="510" y="210" width="120" height="80" as="geometry" />
        </mxCell>
        <mxCell id="SLFati7Lau5gJFIO-DdP-4" value="" style="ellipse;whiteSpace=wrap;html=1;aspect=fixed;fillColor=none;" vertex="1" parent="1">
          <mxGeometry x="185" y="380" width="380" height="380" as="geometry" />
        </mxCell>
        <mxCell id="SLFati7Lau5gJFIO-DdP-5" value="" style="ellipse;whiteSpace=wrap;html=1;fillColor=none;" vertex="1" parent="1">
          <mxGeometry x="440" y="360" width="145" height="110" as="geometry" />
        </mxCell>
        <mxCell id="SLFati7Lau5gJFIO-DdP-6" value="" style="ellipse;whiteSpace=wrap;html=1;aspect=fixed;strokeColor=none;fillColor=#f8cecc;opacity=80;" vertex="1" parent="1">
          <mxGeometry x="210" y="405" width="330" height="330" as="geometry" />
        </mxCell>
        <mxCell id="SLFati7Lau5gJFIO-DdP-7" value="物资点snare" style="text;html=1;strokeColor=none;fillColor=none;align=center;verticalAlign=middle;whiteSpace=wrap;rounded=0;" vertex="1" parent="1">
          <mxGeometry x="453.17999999999995" y="320" width="125" height="30" as="geometry" />
        </mxCell>
        <mxCell id="SLFati7Lau5gJFIO-DdP-8" value="物资点snare" style="text;html=1;strokeColor=none;fillColor=none;align=center;verticalAlign=middle;whiteSpace=wrap;rounded=0;" vertex="1" parent="1">
          <mxGeometry x="430" y="160" width="125" height="30" as="geometry" />
        </mxCell>
        <mxCell id="SLFati7Lau5gJFIO-DdP-9" value="矿石点snare" style="text;html=1;strokeColor=none;fillColor=none;align=center;verticalAlign=middle;whiteSpace=wrap;rounded=0;fontSize=20;" vertex="1" parent="1">
          <mxGeometry x="312.5" y="630" width="125" height="30" as="geometry" />
        </mxCell>
        <mxCell id="SLFati7Lau5gJFIO-DdP-10" value="" style="ellipse;whiteSpace=wrap;html=1;fillColor=#d5e8d4;strokeColor=none;opacity=50;" vertex="1" parent="1">
          <mxGeometry x="453.17999999999995" y="370" width="118.64" height="90" as="geometry" />
        </mxCell>
        <mxCell id="SLFati7Lau5gJFIO-DdP-11" value="C.item_dict={}&lt;br&gt;地图内产生一处这样的位置，概率约为（2/3）的10次方≈0.0173&lt;br&gt;且占地面积较大，玩家在地图能容易落入这种区域" style="text;html=1;strokeColor=none;fillColor=#f8cecc;align=center;verticalAlign=middle;whiteSpace=wrap;rounded=0;opacity=50;" vertex="1" parent="1">
          <mxGeometry x="585" y="520" width="390" height="60" as="geometry" />
        </mxCell>
      </root>
    </mxGraphModel>
  </diagram>
</mxfile>
